
<svg width="64" height="64" viewBox="0 0 64 64" fill="none" xmlns="http://www.w3.org/2000/svg">
  <!-- Mosaic background with Tunisian pattern -->
  <rect width="64" height="64" rx="12" fill="#E6D1A2" />
  
  <!-- Mosaic pattern in background -->
  <path d="M0 0h16v16H0zM32 0h16v16H32zM16 16h16v16H16zM48 16h16v16H48zM0 32h16v16H0zM32 32h16v16H32zM16 48h16v16H16zM48 48h16v16H48z" fill="#E6D1A2" stroke="#D1BC8A" stroke-width="1" />
  
  <!-- Blue Tunisian door -->
  <rect x="16" y="8" width="32" height="48" rx="4" fill="#1A5F7A" />
  
  <!-- Door arch -->
  <path d="M16 24C16 16 32 8 48 24" stroke="#E6D1A2" stroke-width="2" />
  
  <!-- Door details -->
  <rect x="24" y="28" width="16" height="20" rx="1" fill="#0D4D65" stroke="#E6D1A2" stroke-width="1" />
  
  <!-- Traditional pottery element -->
  <circle cx="32" cy="48" r="6" fill="#C35831" />
  <path d="M29 48a3 3 0 016 0" stroke="#E6D1A2" stroke-width="1" />
  
  <!-- Decorative door knocker -->
  <circle cx="32" cy="32" r="3" stroke="#E6D1A2" stroke-width="2" />
</svg>
